
<svg width="270" height="161" viewBox="0 0 270 161" fill="none" xmlns="http://www.w3.org/2000/svg">
<path transform="translate(516,761)" d="m0 0h49l30 3 24 4 32 8 27 9 23 10 20 10 23 14 3 1h20l24 6 19 7 16 8 15 10 14 9 10 9 12 15 10 15 10 18 5 13 2 8v9l-4 16-8 15-9 10-8 7-14 7-5 1v19l-3 17-8 16-7 8 11 4 10 5 14 10 4 5v17l23-5 14-2h22l10 3 6 4 5 6 3 7 2 17-1 14-6 18-3 10v19l8 28 4 23v21l-3 15-5 13-9 14-6 7-9 7-12 5-19 3h-29l-15-2-28-7-47-14-5-1v9l-4 4-2 1h-20l-14-3-7-4-4-5-3-7-1-5v-7l-21 9-18 7-25 6-34 5-43 4-33 2h-20l-41-3-46-5-28-5-21-6-32-13-1 1-3 14-4 6-6 5-10 3-7 1h-20l-5-4-1-2v-8l-25 7-30 9-25 6-14 2h-30l-18-3-11-4-6-4-11-11-8-13-5-12-3-12v-33l5-22 6-20 1-7-1-16-6-17-3-11v-20l3-14 6-8 8-5 8-2h22l24 4 13 3v-17l5-6 17-11 11-5 7-1-10-13-5-11-3-15v-28l3-23 5-20 7-20 11-23 10-17 14-19 13-15 13-13 8-7 15-12 27-18 24-13 28-12 33-11 36-8 30-4z" fill="#772408"/>
<path transform="translate(243,1072)" d="m0 0h20l16 5 20 9 54 27 17 7 12 5 17 6 27 7 24 5 35 5 26 2h56l28-2 35-5 29-6 25-7 17-6 15-6 15-7 56-28 11-5 20-6h19l11 4 14 9 6 5 2 25v27l5 29 3 11 1 7v23l-1 15-6 9-6 5-5 2h-14l-9-1h-11l-8 3-4 2v-9l4-3 40-1 7-3 2-2-1-6-4-4-4-1h-10l-13 4-16 7-25 14-36 19-13 8-12 6-3 3-9 2-28 11-15 6-20 5-42 6-45 4-20 1h-27l-53-4-33-4-27-5-16-5-20-8-17-7-10-3-3-3-14-7-20-12-23-11-13-8-20-11-14-5-10-3h-11l-6 4-1 2v6l7 4 41 1 5 5v8l-6-4-4-2h-13l-10 1h-14l-9-5-7-10-1-3v-40l5-22 3-17v-31l1-25 12-9 10-6z" fill="#FDCE8D"/>
<path transform="translate(605,803)" d="m0 0h8l12 3 19 8 11 2 31 2 18 4 32 13h28l6 5 6 7 8 7 10 10 3 10 7 10 10 21 1 9-4 2-6-5-7-8-2-2-4-11-7-10-9-9-7-8-4-2 9 10 7 8 6 8 5 16 8 8 8 10 4 8 4 1 2-9v-15l-5-19-8-16-8-10-7-8v-5h11l9 2 12 7 15 10 11 7 9 9 11 15 10 16 9 19 1 3v13l-4 12-6 10-6 7-10 7-10 3-17 4-11 7-13 8-6 2-39 4-17 4-8 3-19 2-28 2-24 4-23 4-18 7-20 4-40 12-24 5-19 2-20 1h-66l-31 5h-25l-18-4-20-7-26-12-12-11-11-12-5-8-3-9v-13l4-11 6-10 10-13 11-14 9-10 7-7 15-10 10-8 15-10 11-5 24-8 10-6 7-2 10-1h10l12 3 10 5 7 7 4 5 13 9 12 11 7 10 6 12 6 10 10 26-1 4-2 1-3-3-10-16-16-20-2-1 4 7 12 16 9 15 8 15 3 7 2 1 1-6v-27l-3-5-4-18-7-16-6-10-6-5-9-12-11-6-9-11-9-8-10-7-21-7-15-2 5-5 14-9 14-11 12-6 15-4 14-2 25-1 10-3h10l11 2 7 2-1-5 7 1 19 9 18 11 9 9 13 7 9 8 4 8 5 13 12 12 10 18 7 11 1 2v9l-2 1-5-4-5-11-5-12-7-8-15-11-5-1 6 7 8 7 7 9 4 7 3 10 7 8 4 5 3 9 3 2h6l1-2v-13l-7-25-8-17-11-18-9-10-6-12-16-14-6-8-16-8-23-9-9-3-4-4v-3l25-5z" fill="#F9A139"/>
<path transform="translate(521,784)" d="m0 0h35l27 2 15 2-3 2-30 6-19 5-16 7-4 1-25 1-19 3-18 6-14 8-12 10-17 11-14 12-6 7-4 9-21 7-15 8-18 14-16 11-10 9-9 10-21 28-8 14-4 11v21l4 11 7 12 8 8 7 8 11 9 21 10 21 8 17 5 21 3h12l32-5 10-1h71l29-3 22-4 28-8 26-7 17-4 11-5 28-5 21-3 40-3 28-8 35-3 12-3 18-9v15l-5 13-5 5-5 4-17 8-4 6-2 8-35 17-28 14-27 12-21 8-25 7-28 6-34 5-28 2h-59l-32-3-32-5-23-5-28-8-27-11-26-12-20-10-19-10-14-6-5-12-6-5-14-6-7-6-6-11-2-11v-18l3-25 5-20 8-21 10-20 12-18 11-14 14-15 7-7 11-9 17-13 24-15 19-10 24-10 28-9 25-6 25-4z" fill="#EC482A"/>
<path transform="translate(409,588)" d="m0 0h8l6 4 2 3 1 6-3 12 9 9 12 17 12 20 6 12-1-14-4-37-2-3v-11l4-5 4-2 15-1 4-1h9l5 3 6 7 2 3v-8l4-6 4-2 13-1 4-1h11l5 4 2 4v17l4 38 1-1 3-35v-20l5-6 2-1h12l17 1 7 3h4l2-1h8l5 1 18 1 5 3 3 4 1 7-3 9-6 71 1 13-2 5-5 5-6 1-13-2h-11l-7-3h-4l-8 1-6-1-19-1-4-1-3 1-14 1-5 1h-9l-6-4-8-13 2 6-2 9-6 5-14 1-17 3-18 5-9 3-7-2-5-6-1-9-4 2 3 3 1 3v8l-4 6-3 2-16 4-7 3-7-1-4-2-2 4-7 8-10 7-25 12-6 4-8 1-7-4-3-7-3-9-15-29-12-22-7-13-5-5-1-9 3-5 5-4 16-8 12-7 14-5h17l10 5 8 8 7 14 1 4v10l4 1 6 4-2-28v-20l2-16 4-6 1-1 3-15 3-9 6-5zm96 24 1 2zm1 2 1 2z" fill="#792509"/>
<path transform="translate(144,1106)" d="m0 0h25l12 3 8 5 14 7 3 4v14l-4 14-2 15-4 15-1 7v34l4 11 5 7 5 3 8 2h12l11-2h12l8 1 5 6-1 5-20 14-13 5-10 2-10 1h-22l-19-2-17-2-8 2-6 5-1 2v10l4 6 8 6 13 5 21 4 7 1h11l26-6 17-6 35-12 15-6 10-2h21l11 4 5 3h3l-2-5-4-3-14-4-13-1-14 2-12 4-27 10-19 9-16 5-11 2h-35l-10-4-18-8-5-6v-6l5-5h62l20-3 18-6 15-8 6-5 2-4 1-13 5 1 13 7 6 4 13 5 27 15 12 7v12l-2 8-3 6-5 3-10 2h-18l1-6 2-2h10l11 3-2-7-10-4h-9l-13 2-29 8-22 7-32 8-6 1h-34l-18-3-10-5-11-11-7-10-6-16-2-12v-18l3-18 5-19 4-14v-21l-3-12-5-13-1-4v-21l2-9 6-7z" fill="#FDCD8B"/>
<path transform="translate(693,611)" d="m0 0h9l16 7 10 3 5 4 2 5v16l9-10 8-4 9 1 8 4 13 4 5 4 2 5-1 8-5 7-16 42 3-4 15-26 4-7 3-9 5-5 5-2v-10l4-6 5-3h6l10 6 6 3 3 4 1 3v21l-1 4v8l-3 5-5 5-14 24-15 26-8 14-4 11-6 4h-7l-19-11-8-5-3-4-11-4-17-6-5-6v-9l-7 1-6-3-5-4-2 4-5 3h-8l-10-5-10-3-4-4-1-3v-8l4-6 5-12 19-50 4-11 1-9 5-6zm72 99 1 2z" fill="#7A2509"/>
<path transform="translate(911,1106)" d="m0 0h26l8 4 4 4 3 9v25l-7 18-2 10v19l7 25 4 18 1 7v22l-3 14-5 12-4 6-1-2 2-9-2-6-5-5-5-2h-11l-16 3-13 1h-21l-21-3-13-5-14-10-6-4 1-7 3-3 5-2h15l11 2h13l9-3 5-4 5-8 2-8v-38l-6-25-2-14-3-11v-11l4-5 17-8 4-3z" fill="#FDCD8C"/>
<path transform="translate(804,1242)" d="m0 0h3l2 15 10 9 17 8 19 5 15 2h61l6 5-1 7-5 5-12 5-12 6-4 1h-35l-18-4-13-5-12-6-18-7-17-6-5-2-15-2-13 1-13 3-5 3-3 7 15-7 4-1h22l12 3 15 6 30 10 18 7 27 6h12l24-4 12-4 9-5 6-4-2 4-6 7-8 6-7 3-9 2-9 1h-34l-31-7-39-12-27-7h-12l-9 3-3 3v4l11-2h9l2 5v3h-16l-12-2-6-5-3-7-1-7v-10l16-8 21-12 12-6 7-2 8-6z" fill="#FDCD8B"/>
<path transform="translate(696,620)" d="m0 0 7 1 15 6 7 2 1 1v17l-2 25h4l2-4 12-16 9-10 1-1 7 1 9 4 10 3 2 2-1 5-3 3-10 26-7 18-6 16-5 14-2 10-7-1-10-4-9-3v-6l4-5 6-15 6-16 3-9-5 4-11 14-13 16-2 2-5-1-1-1v-25l1-19 1-3-3 1-6 16-7 19-1 2-1 9-1 2-7-1-15-6-1-5 4-5 7-19 8-21 7-18 5-14 1-9z" fill="#FDCE8D"/>
<path transform="translate(331,654)" d="m0 0h9l7 3 8 7 5 9 1 4v9l-3 7 9 1 8 6 7 11 1 3v15l-6 10-10 8-25 12-7 5-5-1-1-1-2-9-15-29-12-22-9-17v-2l-4-2-1-5 2-2 10-4 16-9 9-5z" fill="#FDCF8D"/>
<path transform="translate(529,601)" d="m0 0h8l1 1v13l8 74 2 5v5l-1 1-18 2h-7l-4-5-15-26-8-14-3-1 5 41 2 3-1 5-14 1-2 1h-7l-2-2v-18l-7-65-3-12 2-2 15-1 3-1h7l4 5 15 26 8 14 2 1-4-39-2-5 1-5 1-1z" fill="#FDCE8D"/>
<path transform="translate(565,600)" d="m0 0 27 2 1 1v6l-2 9-2 22h14l2-19v-16l1-1 14 1 13 1 2 2-3 15-6 73 1 8-2 2-26-2-2-2v-5l2-6 2-26-6-1h-8l-2 30 1 6-2 2-14-1-13-1-1-1 1-7 2-18 5-59v-7l-1-5z" fill="#FDCD8C"/>
<path transform="translate(414,620)" d="m0 0 5 1 8 9 11 16 9 15 11 21 8 18 4 3-1 5-3 2-15 4-8 3-4-1-1-5-1-8-2-3h-7l-12 3v8l3 7 1 5-2 2-16 4-4 2-4-1-1-1v-11l-4-26-2-21v-31l1-9 3-4 17-4z" fill="#FDCE8C"/>
<path transform="translate(521,784)" d="m0 0h35l27 2 15 2-3 2-15 3h-61l-31 3-23 4-28 7-26 9-18 8-16 8-16 9-16 11-14 11-12 11-15 15-13 17-12 19-9 19-8 24-4 20-1 9v27l3 10 5 6 16 8 8 6 4 8 2 8v4l-7-2-5-12-6-5-14-6-7-6-6-11-2-11v-18l3-25 5-20 8-21 10-20 12-18 11-14 14-15 7-7 11-9 17-13 24-15 19-10 24-10 28-9 25-6 25-4z" fill="#FDCC8A"/>
<path transform="translate(828,878)" d="m0 0h7l5 2 8 9 15 22 7 6 1 12 4 5 1 3v13l-4 11-7 8-14 8-22 8-14 8-31 9-35 9-13 2h-29l-1-3 8-2 29-5 35-7 15-5 15-8 16-10 13-10 10-10 5-10v-9l-3-9-1-18-5-12-4-6-9-5z" fill="#FED190"/>
<path transform="translate(395,938)" d="m0 0h11l13 4 19 7 14 7 10 8 10 9 6 5 7 11 1 4-1 3-5 1-10-4-6-7-10-7-5-3-12-12-16-4-5 1 1 4 7 6-1 5h-6l-13-5-8-5-8-1h-9l-6-2h-7l-10 3-12 7-5 1-5-3v-3l11-8 6-5 11-4 10-3 8-5 10-4z" fill="#FED190"/>
<path transform="translate(801,664)" d="m0 0 5 1 10 7 10 5 1 5-3 3h-2l-2 5-15 26-14 24-9 16-2 7-5 1-10-7-12-6v-5l5-5 13-22 15-26 11-19 3-9z" fill="#FDCF8D"/>
<path transform="translate(557,889)" d="m0 0h6l17 8 5 4 5 5 6 4 9 7 5 4 7 3 5 5 6 9 6 4 5 9v9l-3 3h-9l-8-3h-22l-7-3-1-6 4-7 4-5v-7l-4-2-2-2-3-7-8-6-15-9-9-11v-5z" fill="#FED190"/>
<path transform="translate(774,1132)" d="m0 0h2l-1 5-3 2v5l10 19 12 22v2h6l4-1 1 4-19 10-4-1 2-4 1-5-12-24-9-17 3 25 2 14 2 12v7l-5 2-16-15-10-9-13-12-3-2 11 22 11 20h7v4l-16 8h-2l-1-3 4-3v-6l-12-24-10-18-5-1-4 1-1-4 16-8 4 1 8 7 16 15 10 9 4 3-3-23-3-19v-12z" fill="#741A2F"/>
<path transform="translate(379,1134)" d="m0 0 6 1 20 6 12 4 30 5 32 4 7 1 23 1 6 1h51l29-2 30-4 34-5 19-5 22-7 2 1-8 5-16 6-16 5-32 6-17 3-28 2-15 2h-59l-15-2-28-2-39-7-21-5-14-6-11-4z" fill="#7A2509"/>
<path transform="translate(364,1163)" d="m0 0 7 1 18 7-1 4h-8l-4 9-4 12 9 2 11 4 8 3 1-6 4-10v-8l-5-2v-3l10 2 14 5 1 5h-8l-5 10-7 21-5 14v5l5 3-1 4-5-1-20-7 1-4h8l2-2 7-20 1-2-6-1-22-8-6 18v8l4 2v4l-6-1-19-7 1-4h9l3-10 8-21 5-14v-5l-6-4z" fill="#71192F"/>
<path transform="translate(385,1279)" d="m0 0 12 3 5 2 24 6 24 1 14 4 17 3h12l18 1h59l21-1h10l19-4 11-3 24-1 27-7 13-4h2v2l-11 5-24 7-24 5-15 2-17 3-15 1-11 2-35 2-29-1-15-1-11-2-21-2-15-3-16-2-22-5-15-4-15-6z" fill="#7A2509"/>
<path transform="translate(438,884)" d="m0 0h9l10 3 14 10 13 10 10 8 10 10 10 13 1 3-5-1-13-11-11-9-12-4-11-10-6-3 10 13 1 4-5-1-7-6-8-4-7-8-2-1h-13l-26-1v-4l5-2 12-2 12-5z" fill="#FED190"/>
<path transform="translate(452,1190)" d="m0 0 8 1 1 1 5 35 4 25 2 3 4 1-1 4-22-4-2-1v-3l8-1-1-17h-7l-15-3-2-1-2 5-3 5-1 6 7 2-1 4-21-4v-4l7-2 15-24 16-26z" fill="#751C2F"/>
<path transform="translate(307,1132)" d="m0 0 6 2 9 5 2 19 3 38 4-5 13-25 2-3v-5l-4-3 1-4 20 10-1 4-8-1h-2l-2 5-18 34-6 11-5-1-2-1-5-60-3 4-16 30-1 1v5l4 3-1 4-6-2-14-8 1-3h9l9-16 14-26v-7l-4-2z" fill="#71192F"/>
<path transform="translate(619,1192)" d="m0 0h5v4l-6 2v15l2 13 3 31-1 1h-6l-12-14-9-11-11-13-6-8 1 16 3 24 2 4 7 1v4l-11 2h-11l-1-3 7-2v-11l-3-22-2-19-2-2-7-1v-4l8-1h10l9 11 11 13 11 14 3 3v2h2l-5-40-2-2-7-1v-4z" fill="#70192F"/>
<path transform="translate(662,842)" d="m0 0 7 1 5 5 9 3 12 5 11 9 17 6 10 7 10 9 6 8 2 5-1 4-1 1-7-1-10-6-9-2-11-2-10-4-2-5 4-6-1-4-10-7-8-5-19-10-7-5 1-5z" fill="#FED190"/>
<path transform="translate(509,836)" d="m0 0h17l17 3 8 4 23 9 8 5 8 3 16 11 9 7 10 9 8 8 5 7v2l-5-2-11-7-9-4-6-5-13-7-8-10-8-5-10-4-9-7-9-3-8-2-6-3-13-2-26 1-21 7-4 2-12 2 3-3 11-6 16-6z" fill="#762408"/>
<path transform="translate(417,1028)" d="m0 0 9 1 12 6 11 5 24 2 1 4-8 3-5 1h-36l-18 4h-21l-13-2-4-2-1-4 3-2h18l22-3 4-3 1-9z" fill="#FED190"/>
<path transform="translate(696,1170)" d="m0 0h4l4 10v5l-5-1-3-5-2-1-9 1-9 3 1 7 5 14v2l18-6h3l1 4-18 6h-2l8 25 9-2 10-4 3-4v-8l5-1 4 12v3l-38 13-9 2v-4l5-3-1-8-12-37-4-6h-7l-1-3 12-5z" fill="#71192F"/>
<path transform="translate(721,833)" d="m0 0 7 1 13 5h15l14 5 10 9 11 11 3 8 12 22 3 9v5l-5-5-11-19-6-10-6-4-8-9-8-5-6-1 1 10-4-2-8-6-6-3-4-5-10-7-7-4-1-4z" fill="#FED190"/>
<path transform="translate(486,1196)" d="m0 0 24 1 27 2v16h-5l-2-9-3-2-11-2-2 32v23l7 2v4l-21-1-7-1v-4l8-1 2-5 3-50-12 1-3 5-2 5-4-1z" fill="#6F192F"/>
<path transform="translate(535,827)" d="m0 0 15 1 13 2 10 2 9 2 11 8 10 7 12 7 10 8 9 9 2 5-4-1-10-7-7-6-18-8-10-6-6-3-13-4-20-8-10-3-3-2z" fill="#FED190"/>
<path transform="translate(636,821)" d="m0 0 9 1 5 2 28 4 16 4 17 7 15 8 11 8 8 6 1 5-4-1-5-3-11-4-18-10-12-5-25-8-16-3-11-3-8-5z" fill="#762408"/>
<path transform="translate(410,904)" d="m0 0 13 1 14 4 9 5 7 8-4 1-16-5-12-2h-9l-23 5-8 4-4 3-5-1 2-5 11-10 14-7z" fill="#762408"/>
<path transform="translate(648,1185)" d="m0 0h4l1 3-6 2v9l7 30 3 11 2 3 7 1 1 4-22 5h-4l1-4 4-2v-9l-9-39-2-4-8-1v-4z" fill="#6F192F"/>
<path transform="translate(223,1204)" d="m0 0h11l13 5 16 7 32 21 18 10 16 8 43 20 7 3 1 3-9-2-13-5-27-12-7-4-10-4-21-13-21-11-10-9-19-10-8-3h-14l-8 4-2 2h-3l2-4z" fill="#80270A"/>
<path transform="translate(848,1204)" d="m0 0h10l8 3 7 4v3l-4-2-9-4h-14l-22 10-10 8-8 6-23 12-17 11-10 4-23 11-13 5-5 3-11 3h-3l1-3 21-9 14-7 18-8 27-14 32-21 9-5 21-9z" fill="#7F270A"/>
<path transform="translate(258,1248)" d="m0 0h2l-1 5-5 4-11 7-16 6-18 3-25-1-22-3h-17l-8 3h-3v-5l4-3 8-2h18l21 4 2 1h24l19-4 17-6 10-8z" fill="#792408"/>
<path transform="translate(821,1248)" d="m0 0h3l5 5 9 5 7 3 15 4 11 2h23l6-2 17-3h18l9 2 4 4v4l-7-1-4-2h-17l-23 3-24 1-14-2-16-5-13-7-9-8z" fill="#792509"/>
<path transform="translate(508,861)" d="m0 0h12l8 4 8 6 3 5-1 6-2 1h-12l-8-4-12-1-5-3-1-7 7-6z" fill="#FED190"/>
<path transform="translate(831,1012)" d="m0 0h1v15l-5 13-5 5-5 4-17 8-4 6-2 8-6 3h-2v-7l4-11 9-8 13-6 6-4 5-10 2-12z" fill="#FDCE8C"/>
<path transform="translate(459,931)" d="m0 0h6l16 11 12 11 9 10 3 6-1 4-6-4-10-10-6-4-5-5-9-6-12-5 1-6z" fill="#762408"/>
<path transform="translate(140,1143)" d="m0 0h2l3 9 6 22 1 7v18l-4 17-7 16h-2l4-19 1-5v-36l-4-24z" fill="#772408"/>
<path transform="translate(940,1143)" d="m0 0h1l-1 12-3 22v29l5 22-1 4-4-6-6-19-2-12v-9l2-15 6-20z" fill="#772408"/>
<path transform="translate(646,976)" d="m0 0 12 1 8 4 1 5-4 4-7 2-7-1-11-3-1-5 5-5z" fill="#FED190"/>
<path transform="translate(409,650)" d="m0 0 3 1 9 14 4 9-1 4-9 3h-5l-2-8v-22z" fill="#772408"/>
<path transform="translate(224,1102)" d="m0 0 3 1 2 9v34l-3 20-5 12-3 5h-2l4-16 3-17 1-12z" fill="#7A2509"/>
<path transform="translate(856,1102)" d="m0 0h1v28l2 24 4 18 2 11-4-4-4-9-3-11-2-18v-26l2-11z" fill="#772408"/>
<path transform="translate(410,597)" d="m0 0h5l2 2-1 6-5 10-8 3-8 1 1-10 3-8 9-3z" fill="#FDC986"/>
<path transform="translate(785,935)" d="m0 0h8l9 4 4 6-2 7h-8v-7l-2-2h-7v4l6 4v1h-7l-6-4-4-5 1-5z" fill="#762408"/>
<path transform="translate(813,644)" d="m0 0 4 1 10 5 1 2v18l-4-1-10-6-3-9v-8z" fill="#FDCD8B"/>
<path transform="translate(343,711)" d="m0 0h7l5 5 2 5-1 6-6 5-5 1-8-14 1-5z" fill="#7A2509"/>
<path transform="translate(452,1200)" d="m0 0h1l4 24v5l-9-1-11-2 6-11z" fill="#FDCC89"/>
<path transform="translate(325,678)" d="m0 0h7l5 5 1 2v7l-5 5-6 1-5-8-3-6 2-4z" fill="#762408"/>
<path transform="translate(315,984)" d="m0 0h7l2 2 1 5-2 7-10 10-5 1-5-4 1-5 3 1 2 3 3-1 6-13-5 1-6 4 1-4 5-6z" fill="#762408"/>
<path transform="translate(766,1104)" d="m0 0h3l-1 4-14 8-17 9-20 7-9 1 1-2 19-7 19-10z" fill="#83290C"/>
<path transform="translate(312,1104)" d="m0 0 5 1 16 8 21 11 10 4 9 4-4 1-19-6-23-11-10-6-5-4z" fill="#80270A"/>
<path transform="translate(920,1115)" d="m0 0 16 1 6 3v4l-11-2-5-1h-20l-16 3-11 3v-2l9-4 12-3z" fill="#7B2709"/>
<path transform="translate(153,1115)" d="m0 0 21 1 12 2 12 4 2 2-8-1-16-3h-20l-13 3h-4l1-5 6-2z" fill="#782408"/>
<path transform="translate(676,1156)" d="m0 0 4 1 11 8v2h-7l-9-4-1 5-4 6-4 1 1-8 2-9z" fill="#761B2F"/>
<path transform="translate(356,1010)" d="m0 0 2 2-4 3h-2v7l6 3 7-1v3l-6 3-9-1-5-3-2-3 1-7 8-5z" fill="#762408"/>
<path transform="translate(455,1172)" d="m0 0 9 1 6 12v2l-5-1-6-7-9 4h-6l1-3 9-7z" fill="#791C2E"/>
<path transform="translate(769,967)" d="m0 0 6 1 5 2-1 4-4 2-10-1-1-5z" fill="#FED190"/>
<path transform="translate(701,1242)" d="m0 0h5l3 5-1 5-1 1h-6l-3-5 2-5z" fill="#70192E"/>
<path transform="translate(807,1085)" d="m0 0h3l-1 3-9 4-7 5-6 3h-9v-2l8-1 2-2 7-3 7-5z" fill="#80270B"/>
<path transform="translate(334,997)" d="m0 0 4 1 1 1v5l-5 4-4-1-1-5z" fill="#762408"/>
<path transform="translate(271,1085)" d="m0 0 5 1 8 4 5 4 6 2v2h8v2h-8l-8-4-9-6-7-3z" fill="#82270B"/>
<path transform="translate(476,1170)" d="m0 0 8 1-2 4-7 4h-6l1-3 5-5z" fill="#7B1D2E"/>
<path transform="translate(782,919)" d="m0 0 5 2 2 4-3 3-7-3 1-5z" fill="#762408"/>
<path transform="translate(215,1187)" d="m0 0h2l1 6-5 7h-3l1-6z" fill="#892B0D"/>
<path transform="translate(864,1188)" d="m0 0 4 1 3 7v4l-4-2-3-4z" fill="#782408"/>
<path transform="translate(821,1079)" d="m0 0 9 1 1 3h-11l-6 1 4-4z" fill="#842A0C"/>
<path transform="translate(258,1079)" d="m0 0 6 1 3 2v2l-16-2 1-2z" fill="#7C2509"/>
<path transform="translate(807,1085)" d="m0 0h3l-1 3-9 4-5 2 5-6z" fill="#89290D"/>
</svg>
